<svg width="30" height="30" viewBox="0 0 30 30" fill="none" xmlns="http://www.w3.org/2000/svg">
<path fill-rule="evenodd" clip-rule="evenodd" d="M25.2172 9.74399V10.9498C25.2173 11.0662 25.1866 11.1806 25.1284 11.2814C25.0702 11.3822 24.9865 11.4659 24.8857 11.5241L21.0006 13.7667L24.4705 15.7639C24.6975 15.8949 24.8858 16.0834 25.0167 16.3103C25.1477 16.5373 25.2166 16.7947 25.2164 17.0567V20.2697C25.2167 20.5318 25.1479 20.7895 25.017 21.0166C24.886 21.2437 24.6975 21.4323 24.4705 21.5634L15.342 26.8001C15.1153 26.9311 14.858 27 14.5962 27C14.3343 27 14.0771 26.9311 13.8503 26.8001L10.8669 25.0756C10.8165 25.0465 10.7746 25.0046 10.7455 24.9542C10.7163 24.9038 10.701 24.8466 10.701 24.7884C10.701 24.7302 10.7163 24.673 10.7455 24.6226C10.7746 24.5722 10.8165 24.5303 10.8669 24.5012L20.7288 18.8253C20.7541 18.8107 20.7751 18.7898 20.7898 18.7645C20.8044 18.7393 20.8121 18.7106 20.8121 18.6814C20.8121 18.6523 20.8044 18.6236 20.7898 18.5984C20.7751 18.5731 20.7541 18.5522 20.7288 18.5377L17.0674 16.4227C16.9667 16.3645 16.8523 16.3339 16.736 16.3339C16.6196 16.3339 16.5052 16.3645 16.4045 16.4227L6.38178 22.1924C6.30618 22.236 6.22044 22.259 6.13316 22.259C6.04587 22.259 5.96012 22.236 5.88454 22.1924L4.75083 21.5427C4.52263 21.4121 4.333 21.2235 4.20114 20.996C4.06928 20.7685 3.99989 20.5103 4 20.2474V18.9322C3.99994 18.8448 4.02289 18.759 4.06654 18.6834C4.11018 18.6077 4.17298 18.5449 4.24862 18.5012L18.6139 10.2495C18.6392 10.235 18.6602 10.2141 18.6748 10.1888C18.6894 10.1636 18.6971 10.1349 18.6971 10.1057C18.6971 10.0766 18.6894 10.0479 18.6748 10.0226C18.6602 9.9974 18.6392 9.97645 18.6139 9.96197L14.9467 7.84037C14.846 7.78219 14.7316 7.75155 14.6152 7.75155C14.4988 7.75155 14.3845 7.78219 14.2838 7.84037L4.5047 13.4675C4.45427 13.4966 4.39706 13.5119 4.33883 13.5119C4.2806 13.5119 4.2234 13.4965 4.173 13.4674C4.12258 13.4382 4.08075 13.3963 4.05169 13.3458C4.02262 13.2954 4.00737 13.2382 4.00746 13.1799V9.72826C4.00756 9.46566 4.07697 9.20778 4.20865 8.98067C4.34035 8.75349 4.52966 8.56516 4.75746 8.43457L13.881 3.19866C14.1072 3.0685 14.3637 3 14.6248 3C14.8858 3 15.1423 3.0685 15.3686 3.19866L24.4747 8.45036C24.7011 8.58182 24.8889 8.77058 25.0192 8.9977C25.1496 9.22475 25.2179 9.48213 25.2172 9.74399Z" fill="#7524F9"/>
</svg>
