<svg viewBox="0 0 18 18" fill="none" xmlns="http://www.w3.org/2000/svg" coincss="[object Object]" class="css-5rntj7"><g filter="url(#bsc-icon_svg__filter0_b_4036_42194)"><path fill-rule="evenodd" clip-rule="evenodd" d="M9 0a9 9 0 019 9 9 9 0 01-9 9 9 9 0 01-9-9 9 9 0 019-9z" fill="#fff" fill-opacity="0.04"></path></g><path d="M4.943 9l.007 2.38 2.022 1.19v1.393l-3.206-1.88v-3.78L4.943 9zm0-2.38v1.387L3.766 7.31V5.923l1.177-.696 1.184.696-1.184.697zm2.873-.697l1.178-.696 1.183.696-1.183.697-1.178-.697z" fill="#F0B90B"></path><path d="M5.797 10.886V9.493l1.178.697v1.386l-1.178-.69zm2.022 2.182l1.178.697 1.183-.697v1.387l-1.183.697-1.178-.697v-1.387zm4.05-7.145l1.178-.696 1.183.696V7.31l-1.183.697V6.62l-1.178-.697zm1.178 5.456L13.053 9l1.178-.696v3.779l-3.206 1.88v-1.393l2.022-1.19z" fill="#F0B90B"></path><path d="M12.201 10.887l-1.178.69v-1.386l1.178-.697v1.393z" fill="#F0B90B"></path><path d="M12.202 7.113l.007 1.394-2.028 1.19v2.385l-1.178.69-1.178-.69V9.696l-2.027-1.19V7.114l1.182-.696 2.016 1.195 2.028-1.195 1.183.696h-.005zM5.797 4.734l3.2-1.886 3.205 1.886-1.178.697-2.027-1.196-2.022 1.196-1.178-.697z" fill="#F0B90B"></path><defs><filter id="bsc-icon_svg__filter0_b_4036_42194" x="-2" y="-2" width="22" height="22" filterUnits="userSpaceOnUse" color-interpolation-filters="sRGB"><feFlood flood-opacity="0" result="BackgroundImageFix"></feFlood><feGaussianBlur in="BackgroundImage" stdDeviation="1"></feGaussianBlur><feComposite in2="SourceAlpha" operator="in" result="effect1_backgroundBlur_4036_42194"></feComposite><feBlend in="SourceGraphic" in2="effect1_backgroundBlur_4036_42194" result="shape"></feBlend></filter></defs></svg>