<svg viewBox="0 0 29 29" fill="none" xmlns="http://www.w3.org/2000/svg" coincss="[object Object]" class="css-ti08a9"><circle cx="14.4" cy="14.459" r="14.4" fill="#fff" fill-opacity="0.04"></circle><path fill-rule="evenodd" clip-rule="evenodd" d="M10.443 5.234H8.671l3.698 6.448a1.554 1.554 0 002.7 0l3.7-6.448h-1.773l-3.257 5.678a.022.022 0 01-.039 0l-3.257-5.678zM22.18 14.63l.885-1.526-7.44-.005a1.555 1.555 0 00-1.35 2.339l3.733 6.427.886-1.535-3.287-5.66c-.009-.015-.001-.04.03-.04h6.543zM9.424 21.863l-.886-1.535 3.287-5.66c.009-.015.009-.04-.027-.04H5.26l-.885-1.526 7.432-.005a1.555 1.555 0 011.35 2.339l-3.733 6.427z" fill="url(#fncy-coin_svg__paint0_linear_5989_72730)"></path><defs><linearGradient id="fncy-coin_svg__paint0_linear_5989_72730" x1="7.439" y1="1.834" x2="18.628" y2="21.802" gradientUnits="userSpaceOnUse"><stop stop-color="#0FF"></stop><stop offset="0.484" stop-color="#EB39FB"></stop><stop offset="1" stop-color="#FF488A"></stop></linearGradient></defs></svg>