<svg width="30" height="30" viewBox="0 0 30 30" fill="none" xmlns="http://www.w3.org/2000/svg">
<path d="M6.14521 9.58036C11.0329 4.80655 18.9671 4.80655 23.8548 9.58036L24.4432 10.1593C24.69 10.3966 24.69 10.7857 24.4432 11.0229L22.4312 12.9875C22.3078 13.1109 22.1085 13.1109 21.9851 12.9875L21.1784 12.1998C17.7618 8.86856 12.2382 8.86856 8.82158 12.1998L7.95792 13.0445C7.83454 13.1678 7.63524 13.1678 7.51186 13.0445L5.49984 11.0799C5.25308 10.8426 5.25308 10.4535 5.49984 10.2162L6.14521 9.58036ZM28.0212 13.6424L29.8149 15.3887C30.0617 15.6259 30.0617 16.015 29.8149 16.2523L21.7384 24.1391C21.4916 24.3763 21.093 24.3763 20.8557 24.1391L15.1234 18.5396C15.0664 18.4826 14.962 18.4826 14.9051 18.5396L9.17273 24.1391C8.92597 24.3763 8.52736 24.3763 8.2901 24.1391L0.185068 16.2523C-0.0616893 16.015 -0.0616893 15.6259 0.185068 15.3887L1.9788 13.6424C2.22556 13.4051 2.62417 13.4051 2.86144 13.6424L8.5938 19.2419C8.65074 19.2988 8.75514 19.2988 8.81208 19.2419L14.5444 13.6424C14.7912 13.4051 15.1898 13.4051 15.4271 13.6424L21.1594 19.2419C21.2164 19.2988 21.3208 19.2988 21.3777 19.2419L27.1101 13.6424C27.3758 13.4051 27.7744 13.4051 28.0212 13.6424Z" fill="#0873FF"/>
</svg>
